<?xml version="1.0" encoding="UTF-8"?>
<svg xmlns="http://www.w3.org/2000/svg" viewBox="0 0 453.33 490.67">
  <defs>
    <style>
      .cls-1, .cls-2, .cls-3, .cls-4 {
        fill: #7f8183;
      }

      .cls-1, .cls-5, .cls-6, .cls-7, .cls-4, .cls-8 {
        mix-blend-mode: screen;
      }

      .cls-1, .cls-3 {
        opacity: .64;
      }

      .cls-9 {
        fill: #231f20;
      }

      .cls-10 {
        fill: #a4a5a8;
      }

      .cls-5 {
        opacity: .36;
      }

      .cls-5, .cls-7, .cls-8 {
        fill: #b8babc;
      }

      .cls-11 {
        fill: #346076;
        font-family: SegoeUIVariable-SemiboldSmall, 'Segoe UI Variable';
        font-size: 39px;
        font-variation-settings: 'wght' 600, 'opsz' 8;
        font-weight: 600;
      }

      .cls-12 {
        isolation: isolate;
      }

      .cls-6 {
        fill: #fff;
      }

      .cls-13 {
        fill: #515455;
      }

      .cls-14 {
        fill: none;
        stroke: #1d1d1b;
        stroke-miterlimit: 10;
        stroke-width: 3px;
      }

      .cls-3 {
        mix-blend-mode: multiply;
      }

      .cls-8 {
        opacity: .45;
      }

      .cls-15 {
        fill: #6d7072;
      }

      .cls-16 {
        fill: #1d1d1b;
        font-family: SegoeUIVariable-BoldSmall, 'Segoe UI Variable';
        font-size: 42px;
        font-variation-settings: 'wght' 700, 'opsz' 8;
        font-weight: 700;
      }
    </style>
  </defs>
  <g class="cls-12">
    <g id="Calque_1" data-name="Calque 1">
      <g>
        <g>
          <g>
            <g>
              <polygon class="cls-10" points="162.29 226.89 162.73 229.56 165.74 230.58 178.08 207.18 173.45 204.65 162.29 226.89"/>
              <path class="cls-9" d="M165.84,230.84l-3.29-1.12-.47-2.86,11.29-22.49,4.99,2.72-.1.18-12.43,23.56ZM162.92,229.4l2.72.92,12.16-23.07-4.26-2.32-11.03,21.98.41,2.49Z"/>
            </g>
            <g>
              <g>
                <g>
                  <rect class="cls-15" x="167.41" y="227.89" width="6.31" height="12.87" transform="translate(-109.6 308.54) rotate(-68.79)"/>
                  <path class="cls-9" d="M175.54,239.86l-12.38-4.81,2.43-6.27,12.38,4.81-2.43,6.27ZM163.69,234.82l11.61,4.51,2.13-5.49-11.61-4.51-2.13,5.49Z"/>
                </g>
                <g>
                  <g>
                    <polygon class="cls-10" points="166.1 235.97 167.19 235.37 167.48 236.51 166.1 235.97"/>
                    <path class="cls-9" d="M167.78,236.85l-2.16-.84,1.71-.95.45,1.79ZM166.59,235.94l.59.23-.12-.49-.47.26Z"/>
                  </g>
                  <g>
                    <polygon class="cls-10" points="171.25 237.97 172.34 237.37 172.63 238.51 171.25 237.97"/>
                    <path class="cls-9" d="M172.93,238.85l-2.16-.84,1.71-.95.45,1.79ZM171.74,237.94l.59.23-.12-.49-.47.26Z"/>
                  </g>
                </g>
              </g>
              <g>
                <g>
                  <g>
                    <rect class="cls-2" x="164.5" y="229.39" width="8.91" height="18.17" transform="translate(-114.5 309.69) rotate(-68.79)"/>
                    <rect class="cls-4" x="156.49" y="234.87" width="8.91" height=".98" transform="translate(-116.71 300.23) rotate(-68.79)"/>
                    <rect class="cls-3" x="170.63" y="238.35" width="8.91" height="5.01" transform="translate(-112.8 316.93) rotate(-68.79)"/>
                    <path class="cls-9" d="M175.93,246.18l-17.33-6.73,3.37-8.69,17.33,6.73-3.37,8.69ZM159.14,239.22l16.55,6.43,3.07-7.92-16.55-6.43-3.07,7.92Z"/>
                  </g>
                  <g>
                    <rect class="cls-2" x="164.5" y="234.57" width="8.91" height="7.81" transform="translate(-114.5 309.69) rotate(-68.79)"/>
                    <rect class="cls-3" x="167.48" y="238.92" width="8.91" height="1.41" transform="translate(-113.67 313.21) rotate(-68.79)"/>
                    <rect class="cls-4" x="161.94" y="236.32" width="8.91" height="2.31" transform="translate(-115.2 306.67) rotate(-68.79)"/>
                    <path class="cls-9" d="M171.1,244.31l-7.67-2.98,3.37-8.69,7.67,2.98-3.37,8.69ZM163.97,241.09l6.89,2.68,3.07-7.92-6.89-2.68-3.07,7.92Z"/>
                  </g>
                </g>
                <g>
                  <g>
                    <polygon class="cls-10" points="162.65 240.81 164.19 239.95 164.6 241.56 162.65 240.81"/>
                    <path class="cls-9" d="M164.9,241.9l-2.73-1.06,2.16-1.2.57,2.26ZM163.14,240.77l1.16.45-.24-.96-.91.51Z"/>
                  </g>
                  <g>
                    <polygon class="cls-10" points="169.92 243.63 171.46 242.78 171.86 244.38 169.92 243.63"/>
                    <path class="cls-9" d="M172.16,244.72l-2.73-1.06,2.16-1.2.57,2.26ZM170.41,243.59l1.16.45-.24-.96-.91.51Z"/>
                  </g>
                </g>
                <g>
                  <g>
                    <polygon class="cls-10" points="165.87 232.5 166.43 234.17 167.82 233.26 165.87 232.5"/>
                    <path class="cls-9" d="M168.27,233.21l-1.95,1.28-.79-2.34,2.73,1.06ZM166.55,233.85l.82-.54-1.16-.45.33.99Z"/>
                  </g>
                  <g>
                    <polygon class="cls-10" points="173.14 235.32 173.7 236.99 175.09 236.08 173.14 235.32"/>
                    <path class="cls-9" d="M175.54,236.03l-1.95,1.28-.79-2.34,2.73,1.06ZM173.81,236.67l.82-.54-1.16-.45.33.99Z"/>
                  </g>
                </g>
              </g>
            </g>
            <g>
              <path class="cls-10" d="M193.62,160.45c-16.18-4.76-35.34-1.54-35.34-1.54,0,0-10.73,3.98-8.1,5.63s35.36,20,36.22,20.7c.86.7-22.62,44.99-22.62,44.99,0,0,8.34,4.6,18.3,3.12,9.95-1.48,20.14,10.5,24.6,15.35,4.46,4.85,81.91,94.36,81.91,94.36,0,0,8.61,11.63,22.8-2.5,14.82-13.48,3.63-22.65,3.63-22.65,0,0-85.56-81.79-90.19-86.49-4.28-4.35-14.42-13.89-14.34-23.11,1.2-6.54,1.11-12.13,1.95-15.93,1.17-5.27-2.66-27.16-18.84-31.92Z"/>
              <path class="cls-3" d="M177.61,207.56c2.43-4.45,4.8-8.93,7.09-13.46,1.72-3.41,3.01-6.03,4.59-9.51-.46-.25-7.12-4.49-10.46-6.12-.66-.32-1.18-.58-1.47-.72-3.53-1.74-7.02-3.58-10.46-5.48-3.3-1.82-6.5-3.79-9.71-5.77-2.14-1.33-4.31-2.65-6.57-3.78-.86.7-1.2,1.36-.45,1.83,2.63,1.65,35.36,20,36.22,20.7.86.7-22.62,44.99-22.62,44.99,0,0,.64.36,1.79.84,1.31-3.99,3.24-7.76,5.26-11.42,2.23-4.04,4.57-8.03,6.78-12.08Z"/>
              <path class="cls-7" d="M208.91,219.32c-.87-1.11-1.58-2.36-2.05-3.7-.24-.67-.41-1.36-.52-2.05-.12-.75-.16-1.52-.19-2.28-.08-1.66-.07-3.32.03-4.97.07-1.2.19-2.4.37-3.6-.06.13-.11.26-.17.39-1.03,2.38-2.09,4.75-3.21,7.08-1.12,2.35-6.16,11.39-7.44,13.63-1.26,2.21-2.51,4.44-4.08,6.45-.53.68-1.15,1.28-2.01,1.52-.48.14-.98.16-1.48.12.15.1.3.2.46.29.73.45,1.48.84,2.25,1.2.78.36,1.58.67,2.4.94.4.13.8.25,1.21.36-.05-1.65.35-3.24,1.11-4.69.76-1.46,1.81-2.75,2.9-3.98,1.06-1.2,2.13-2.4,3.28-3.51,1.91-1.83,4.41-3.61,7.2-3.13-.02-.02-.04-.05-.06-.07Z"/>
              <path class="cls-6" d="M195.14,227.56c1.37-1.74,2.41-3.71,3.45-5.65.5-.94,1.04-1.86,1.57-2.78.72-1.25,1.38-2.52,1.99-3.82,1.18-2.54,2.14-5.18,2.86-7.88.23-.87.44-1.75.63-2.63-.8,1.81-1.62,3.62-2.48,5.4-1.12,2.35-6.16,11.39-7.44,13.63-1.26,2.21-2.51,4.44-4.08,6.45-.06.08-.12.15-.18.22,1.5-.47,2.73-1.73,3.67-2.93Z"/>
              <path class="cls-3" d="M193.62,160.45c-5.41-1.59-11.15-2.29-16.39-2.52.94.17,1.88.35,2.81.55,6.19,1.35,12.38,3.5,17.61,7.16,2.43,1.71,4.64,3.76,6.39,6.17,1.98,2.73,3.29,5.85,4.07,9.12.81,3.44,1.08,6.99,1.16,10.51.04,1.62.02,3.23-.12,4.84-.13,1.52-.34,3.02-.57,4.53-.6,3.89-1.31,7.87-1.14,11.78,2.25,6.28,6.33,11.82,10.98,16.59,7.24,7.42,14.77,14.58,22.16,21.86,7.44,7.33,14.78,14.78,22.42,21.92,7.61,7.11,15.39,14.02,23.06,21.06,6.58,6.04,13,12.26,19.52,18.37,4.49,4.21,9.6,9.61,8.74,16.3-.93,7.17-7.09,13.12-14.27,13.78-5.08.46-10.07-.8-14.58-3.06,2.01,2.32,3.15,3.64,3.15,3.64,0,0,8.61,11.63,22.8-2.5,14.82-13.48,3.63-22.65,3.63-22.65,0,0-85.56-81.79-90.19-86.49-4.28-4.35-14.42-13.89-14.34-23.11,1.2-6.54,1.11-12.13,1.95-15.93,1.17-5.27-2.66-27.16-18.84-31.92Z"/>
              <path class="cls-9" d="M312.22,340.08c-.22.21-.45.42-.68.63-5.03,5.01-9.93,7.37-14.56,7.02-5.31-.4-8.39-4.34-8.54-4.54-1-1.16-77.5-89.56-81.91-94.35-.26-.29-.55-.6-.85-.94-2.39-2.62-5.99-6.58-10.14-9.69-4.93-3.69-9.44-5.25-13.42-4.66-2.86.43-7.43.6-12.97-1.01-3.31-.96-5.44-2.12-5.46-2.13l-.18-.1.1-.18c9.07-17.1,22.47-42.95,22.62-44.77-.91-.62-10.58-6.09-19.13-10.93-8.12-4.6-15.78-8.94-17.01-9.71-.47-.29-.53-.64-.51-.88.2-1.94,7.78-4.8,8.65-5.12h.04s4.88-.82,11.63-1.03c6.23-.19,15.42.09,23.8,2.56,3.78,1.11,7.16,3.24,10.03,6.31,2.42,2.59,4.45,5.81,6.03,9.57,2.95,7.01,3.49,13.74,2.93,16.28-.4,1.79-.59,3.97-.8,6.5-.24,2.8-.52,5.96-1.14,9.4-.06,8.54,8.69,17.33,13.39,22.05.32.32.62.62.89.9,4.56,4.63,89.05,85.4,90.18,86.48.19.16,3.98,3.43,4.11,8.76.11,4.44-2.26,9-7.06,13.57ZM311.25,340.41c5.17-4.7,7.73-9.37,7.61-13.88-.13-5.24-3.93-8.43-3.97-8.46h-.01c-.86-.83-85.61-81.86-90.19-86.5-.27-.28-.57-.58-.89-.9-4.75-4.77-13.58-13.65-13.51-22.37v-.04c.63-3.43.9-6.59,1.15-9.38.22-2.54.41-4.74.81-6.55.54-2.41-.02-9.18-2.9-16.03-4.37-10.38-11-14.24-15.79-15.65-4.6-1.35-12.43-2.89-23.66-2.55-6.51.2-11.22.96-11.56,1.01-3.3,1.22-8.23,3.5-8.36,4.77-.01.12,0,.29.32.48,1.22.77,8.89,5.11,17,9.7,9.65,5.47,18.77,10.63,19.24,11.01.21.17.43.34-3.11,7.58-1.84,3.76-4.47,8.95-7.82,15.44-5.29,10.25-10.75,20.55-11.54,22.05,1.27.65,9.02,4.34,17.98,3,4.1-.61,8.72.98,13.73,4.74,4.18,3.13,7.8,7.11,10.2,9.74.3.33.59.65.85.93,4.41,4.8,81.14,93.47,81.92,94.37h0c.03.05,3.02,4,8.25,4.4,4.5.34,9.29-1.99,14.24-6.91Z"/>
            </g>
            <g>
              <path class="cls-10" d="M174.95,204.57l-12.22,24.99s-14.88-10.64-19.99-21.42c-5.11-10.79-7.71-24.84-5.05-23.47,4.7,2.43,37.26,19.89,37.26,19.89Z"/>
              <path class="cls-7" d="M149.13,204.96c-1.3-1.72-2.58-3.45-3.75-5.26-.71-1.09-1.38-2.21-1.96-3.37-.46-.92-.91-1.91-1.06-2.94-.09-.64-.04-1.39.53-1.8.72-.51,1.79-.32,2.61-.13-.47-.52-1.05-.93-1.68-1.25-1.23-.62-2.61-.89-3.95-1.18-.52-.11-1.05-.22-1.57-.35.03.6.07,1.2.14,1.79.5,4.58,1.97,9.03,3.87,13.21.94,2.07,2,4.09,3.16,6.04,1.29,2.17,2.67,4.3,4.28,6.23.91,1.09,1.88,2.13,2.89,3.13.76.75,1.55,1.46,2.32,2.19,1.27,1.2,2.48,2.46,3.86,3.54.62.49,1.3.98,2.06,1.24.44.15.86.21,1.28,0,.43-.22.79-.58,1.1-.94.43-.48.79-1.01,1.13-1.56.77-1.22,1.4-2.54,1.89-3.9.21-.58.39-1.17.51-1.78.09-.44.16-.92.07-1.36-.06-.29-.21-.58-.54-.6-.38-.03-.78.35-1.06.56-.3.23-.6.51-.95.68-1.92.93-4.01-.49-5.51-1.59-2.09-1.53-3.92-3.39-5.6-5.36-1.44-1.69-2.74-3.47-4.07-5.24Z"/>
              <path class="cls-3" d="M137.69,184.67c-.71-.37-1.05.37-1.06,1.86,2.99,3,6.45,5.5,9.97,7.84,1.9,1.26,3.83,2.48,5.76,3.71,2.03,1.3,4.08,2.57,6.16,3.79,1.07.63,2.14,1.25,3.22,1.87.81.47,1.61.94,2.45,1.33,1.59.75,3.34,1.38,4.69,2.53.46.39.98.94,1.16,1.54.15.5-.08.98-.3,1.42-1.02,2.08-1.87,4.25-2.79,6.38-.96,2.23-1.92,4.45-2.9,6.67-.76,1.74-1.54,3.47-2.36,5.18.65.5,1.03.77,1.03.77l12.22-24.99s-32.56-17.47-37.26-19.89Z"/>
              <path class="cls-9" d="M162.81,229.87l-.2-.14s-3.78-2.71-8.1-6.68c-7.23-6.65-10.49-11.73-11.96-14.82-2.11-4.44-3.98-9.86-5.13-14.86-.41-1.79-1.67-7.7-.52-8.8.13-.13.43-.31.89-.07,4.64,2.4,36.94,19.72,37.26,19.9l.18.09-12.42,25.39ZM137.19,184.86s0,0,0,0c-.53.51-.54,3.31.64,8.41,1.15,4.97,3.01,10.36,5.1,14.78,4.71,9.94,17.94,19.89,19.73,21.2l12.02-24.59c-2.6-1.39-32.62-17.49-37.08-19.8-.25-.13-.36-.05-.4,0Z"/>
            </g>
            <g>
              <g>
                <polygon class="cls-13" points="169.57 226.93 177.29 211.91 185.58 215.06 177.57 230.28 169.57 226.93"/>
                <path class="cls-9" d="M177.66,230.54l-8.38-3.5,7.91-15.39,8.69,3.3-8.22,15.59ZM169.85,226.83l7.62,3.18,7.82-14.84-7.9-3-7.53,14.66Z"/>
              </g>
              <g>
                <g>
                  <path class="cls-10" d="M179.31,227.56h0c-.22.57-.87.86-1.45.64l-6.61-2.57c-.57-.22-.86-.87-.64-1.45h0c.22-.57.87-.86,1.45-.64l6.61,2.57c.57.22.86.87.64,1.45Z"/>
                  <path class="cls-9" d="M179.17,228.16c-.1.1-.22.18-.36.24-.3.13-.64.14-.95.02l-6.78-2.63c-.31-.12-.55-.35-.68-.65-.13-.3-.14-.64-.02-.95l.07-.17c.12-.31.35-.55.65-.68.3-.13.64-.14.95-.02l6.78,2.63c.64.25.95.96.71,1.6h0s-.07.17-.07.17c-.07.17-.17.32-.3.45ZM171.04,223.88c-.09.08-.15.18-.2.3l-.07.17c-.08.2-.07.43.02.63.09.2.25.36.45.43l6.78,2.63c.2.08.43.07.63-.02.2-.09.36-.25.43-.45l.07-.17c.16-.42-.05-.9-.47-1.06l-6.78-2.63c-.2-.08-.43-.07-.63.02-.09.04-.17.09-.24.16Z"/>
                </g>
                <g>
                  <path class="cls-10" d="M180.38,225.57h0c-.22.57-.87.86-1.45.64l-6.61-2.57c-.57-.22-.86-.87-.64-1.45h0c.22-.57.87-.86,1.45-.64l6.61,2.57c.57.22.86.87.64,1.45Z"/>
                  <path class="cls-9" d="M180.24,226.17c-.1.1-.22.18-.36.24-.3.13-.64.14-.95.02l-6.78-2.63c-.64-.25-.95-.96-.71-1.6l.07-.17c.12-.31.35-.55.65-.68.3-.13.64-.14.95-.02l6.78,2.63c.31.12.55.35.68.65.13.3.14.64.02.95l-.07.17c-.07.17-.17.32-.3.45ZM172.11,221.89c-.09.08-.15.18-.2.3l-.07.17c-.16.42.05.9.47,1.06l6.78,2.63c.2.08.43.07.63-.02.2-.09.36-.25.43-.45l.07-.17c.08-.2.07-.43-.02-.63-.09-.2-.25-.36-.45-.43l-6.78-2.63c-.2-.08-.43-.07-.63.02-.09.04-.17.09-.24.16Z"/>
                </g>
                <g>
                  <path class="cls-10" d="M181.45,223.58h0c-.22.57-.87.86-1.45.64l-6.61-2.57c-.57-.22-.86-.87-.64-1.45h0c.22-.57.87-.86,1.45-.64l6.61,2.57c.57.22.86.87.64,1.45Z"/>
                  <path class="cls-9" d="M181.32,224.18c-.34.32-.84.44-1.3.26l-6.78-2.63c-.64-.25-.95-.96-.71-1.6l.07-.17c.12-.31.35-.55.65-.68.3-.13.64-.14.95-.02l6.78,2.63c.31.12.55.35.68.65.13.3.14.64.02.95l-.07.17c-.07.17-.17.33-.3.45ZM173.18,219.9c-.09.08-.15.18-.2.3l-.07.17c-.16.42.05.9.47,1.06l6.78,2.63c.42.16.9-.05,1.06-.47l.07-.17c.08-.2.07-.43-.02-.63-.09-.2-.25-.36-.45-.43l-6.78-2.63c-.2-.08-.43-.07-.63.02-.09.04-.17.09-.24.16Z"/>
                </g>
                <g>
                  <path class="cls-10" d="M182.53,221.59h0c-.22.57-.87.86-1.45.64l-6.61-2.57c-.57-.22-.86-.87-.64-1.45h0c.22-.57.87-.86,1.45-.64l6.61,2.57c.57.22.86.87.64,1.45Z"/>
                  <path class="cls-9" d="M182.39,222.19c-.34.32-.84.44-1.3.26l-6.78-2.63c-.64-.25-.95-.96-.71-1.6l.07-.17c.12-.31.35-.55.65-.68.3-.13.64-.14.95-.02l6.78,2.63c.31.12.55.35.68.65.13.3.14.64.02.95l-.07.17c-.07.17-.17.33-.3.45ZM174.26,217.91c-.09.08-.15.18-.2.3l-.07.17c-.16.42.05.9.47,1.06l6.78,2.63c.2.08.43.07.63-.02.2-.09.36-.25.43-.45l.07-.17c.08-.2.07-.43-.02-.63-.09-.2-.25-.36-.45-.43l-6.78-2.63c-.2-.08-.43-.07-.63.02-.09.04-.17.09-.24.16Z"/>
                </g>
                <g>
                  <path class="cls-10" d="M183.6,219.6h0c-.22.57-.87.86-1.45.64l-6.61-2.57c-.57-.22-.86-.87-.64-1.45h0c.22-.57.87-.86,1.45-.64l6.61,2.57c.57.22.86.87.64,1.45Z"/>
                  <path class="cls-9" d="M183.46,220.21c-.1.1-.22.18-.36.24-.3.13-.64.14-.95.02l-6.78-2.63c-.31-.12-.55-.35-.68-.65-.13-.3-.14-.64-.02-.95l.07-.17c.25-.64.96-.95,1.6-.71l6.78,2.63c.31.12.55.35.68.65.13.3.14.64.02.95h0s-.07.17-.07.17c-.07.17-.17.32-.3.45ZM175.33,215.92c-.09.08-.15.18-.2.3l-.07.17c-.08.2-.07.43.02.63.09.2.25.36.45.43l6.78,2.63c.2.08.43.07.63-.02.2-.09.36-.25.43-.45l.07-.17c.16-.42-.05-.9-.47-1.06l-6.78-2.63c-.2-.08-.43-.07-.63.02-.09.04-.17.09-.24.16Z"/>
                </g>
                <g>
                  <path class="cls-10" d="M184.68,217.61h0c-.22.57-.87.86-1.45.64l-6.61-2.57c-.57-.22-.86-.87-.64-1.45h0c.22-.57.87-.86,1.45-.64l6.61,2.57c.57.22.86.87.64,1.45Z"/>
                  <path class="cls-9" d="M184.54,218.22c-.1.1-.22.18-.36.24-.3.13-.64.14-.95.02l-6.78-2.63c-.31-.12-.55-.35-.68-.65-.13-.3-.14-.64-.02-.95l.07-.17c.12-.31.35-.55.65-.68.3-.13.64-.14.95-.02l6.78,2.63c.31.12.55.35.68.65.13.3.14.64.02.95l-.07.17c-.07.17-.17.32-.3.45ZM176.4,213.93c-.09.08-.15.18-.2.3l-.07.17c-.16.42.05.9.47,1.06l6.78,2.63c.2.08.43.07.63-.02.2-.09.36-.25.43-.45l.07-.17c.08-.2.07-.43-.02-.63-.09-.2-.25-.36-.45-.43l-6.78-2.63c-.2-.08-.43-.07-.63.02-.09.04-.17.09-.24.16Z"/>
                </g>
              </g>
            </g>
            <path class="cls-1" d="M172.8,226.23l1.95.76c.37-.65.71-1.32,1.04-2l-1.88-.73c-.36.66-.73,1.32-1.11,1.97Z"/>
            <path class="cls-3" d="M177.77,225.76c-.35.66-.72,1.32-1.08,1.98l1.26.49c.53.2,1.13-.06,1.33-.59l.07-.17c.2-.53-.06-1.13-.59-1.33l-.98-.38Z"/>
            <path class="cls-1" d="M173.94,224.22s-.01.03-.02.04l1.88.73c.18-.38.36-.76.54-1.15.14-.3.27-.59.4-.89l-1.78-.69c-.33.66-.67,1.31-1.02,1.96Z"/>
            <path class="cls-3" d="M178.82,223.76c-.19.36-.38.73-.57,1.09-.16.3-.32.6-.48.9l1.25.48c.53.2,1.13-.06,1.33-.59l.07-.17c.2-.53-.06-1.13-.59-1.33l-1.01-.39Z"/>
            <path class="cls-1" d="M175.88,220.42c-.31.61-.61,1.23-.92,1.84l1.78.69c.31-.68.61-1.36.93-2.04l-1.7-.66c-.03.06-.06.12-.09.17Z"/>
            <path class="cls-3" d="M179.85,221.75c-.34.67-.68,1.34-1.02,2l1.27.49c.53.2,1.13-.06,1.33-.59l.07-.17c.2-.53-.06-1.13-.59-1.33l-1.05-.41Z"/>
            <path class="cls-1" d="M175.97,220.24l1.7.66c.13-.27.26-.54.39-.81.2-.4.4-.8.61-1.2l-1.68-.65c-.35.66-.69,1.33-1.03,2Z"/>
            <path class="cls-3" d="M180.88,219.75c-.23.44-.47.89-.7,1.33-.11.22-.22.44-.34.67l1.32.51c.53.2,1.13-.06,1.33-.59l.07-.17c.2-.53-.06-1.13-.59-1.33l-1.09-.42Z"/>
            <path class="cls-3" d="M181.92,217.75c-.25.49-.51.98-.76,1.47-.09.18-.18.35-.28.52l1.36.53c.53.2,1.13-.06,1.33-.59l.07-.17c.2-.53-.06-1.13-.59-1.33l-1.13-.44Z"/>
            <path class="cls-1" d="M177.8,216.76c-.27.49-.54.98-.8,1.48l1.68.65c.08-.14.15-.29.23-.43.28-.52.58-1.03.87-1.54l-1.7-.66c-.09.17-.19.34-.28.5Z"/>
            <path class="cls-3" d="M182.95,215.74c-.28.54-.56,1.07-.84,1.61-.07.13-.13.26-.2.39l1.39.54c.53.2,1.13-.06,1.33-.59l.07-.17c.2-.53-.06-1.13-.59-1.33l-1.17-.45Z"/>
            <path class="cls-1" d="M178.09,216.26l1.7.66s.04-.07.06-.11c.36-.62.71-1.23,1.06-1.86l-1.71-.66c-.37.66-.74,1.31-1.11,1.97Z"/>
            <g>
              <path class="cls-3" d="M307.36,318.37s-94.31-93.41-96.58-96.25c-2.28-2.84-4.72-.31-4.72-.31l-.38.36-7.19,6.84-.38.36s-2.65,2.32.08,4.73c2.73,2.41,91.35,101.23,91.35,101.23,0,0,6.02,8.56,12.78,3.77,2.08-1.48,3.41-2.53,4.23-3.34,1.09-1.01,2.37-2.45,3.95-4.45,5.12-6.51-3.13-12.95-3.13-12.95Z"/>
              <path class="cls-10" d="M306.16,318.19s-92.35-92.05-94.61-94.82c-2.26-2.77-4.4-.54-4.4-.54l-.34.32-6.32,6.01-.34.32s-2.34,2.03.32,4.42c2.66,2.39,90.01,99.19,90.01,99.19,0,0,6.03,8.3,12.05,4.18,1.86-1.27,3.03-2.18,3.75-2.89.96-.89,2.08-2.16,3.44-3.95,4.42-5.81-3.58-12.24-3.58-12.24Z"/>
              <path class="cls-5" d="M217.59,241.7c-.29-4.26-.53-8.53-.69-12.8-2.52-2.55-4.26-4.34-5-5.13.15,1.9.25,3.8.4,5.7.21,2.56.44,5.13.68,7.69.37,3.87.77,7.74,1.17,11.6,1.38,1.51,2.83,3.11,4.35,4.78-.33-3.95-.64-7.89-.91-11.85Z"/>
              <path class="cls-5" d="M299.71,338.39c-.14-3.07-.44-6.13-.76-9.19-.18-1.76-.37-3.53-.54-5.3-.08-.84-.15-1.67-.21-2.51-.07-.91-.09-1.82-.14-2.73-.15-3.11-.47-6.2-.76-9.3-.98-.98-2.03-2.02-3.13-3.13.24,2.64.49,5.28.71,7.91.35,4.08.67,8.17.91,12.26.23,3.81.39,7.62.45,11.43,1.08.45,2.26.69,3.47.55Z"/>
              <path class="cls-5" d="M273.92,297.55c-.32-4.16-.63-8.32-.96-12.48-7.3-7.29-15.09-15.07-22.59-22.58.79,8.43,1.95,16.83,3.1,25.22.24,1.74.48,3.48.73,5.23,7.72,8.53,15.08,16.68,21.13,23.38-.45-6.26-.92-12.51-1.41-18.77Z"/>
              <path class="cls-9" d="M306.85,335.76c-.06.05-.11.11-.17.16-.84.83-2.2,1.89-4.25,3.35-1.77,1.26-3.66,1.73-5.6,1.39-4.21-.73-7.25-4.91-7.46-5.2-1.31-1.46-88.64-98.84-91.33-101.21-.87-.77-1.31-1.61-1.3-2.5,0-1.45,1.18-2.5,1.23-2.54l7.95-7.56s1.14-1.16,2.59-1.09c.89.04,1.71.52,2.44,1.43,2.24,2.79,95.17,94.85,96.56,96.23.28.22,4.31,3.46,4.82,7.7.24,1.96-.32,3.82-1.67,5.53-1.46,1.86-2.71,3.28-3.8,4.32ZM306.4,335.62c1.12-1.04,2.41-2.49,3.94-4.43,1.27-1.62,1.81-3.37,1.58-5.22-.5-4.13-4.64-7.4-4.68-7.44l-.02-.02c-3.85-3.81-94.34-93.45-96.6-96.27-.65-.81-1.36-1.23-2.13-1.27-1.27-.06-2.27.96-2.28.97l-7.96,7.57s-1.09.97-1.09,2.24c0,.77.39,1.5,1.16,2.19,2.71,2.39,87.75,97.22,91.37,101.25l.02.02s3.09,4.34,7.2,5.04c1.83.31,3.61-.13,5.29-1.32,2.04-1.45,3.38-2.5,4.21-3.31Z"/>
            </g>
            <g>
              <path class="cls-2" d="M178.84,208.82l12.37-25.01-35.63-19.63s-.09-2.73,14.41-3.33c14.5-.6,25.07,3.08,30.9,8.55,5.84,5.48,9.16,14.91,8.4,22.36-.76,7.45-15.17,34.04-19.22,38.53,0,0,.17,1.08-2.78.91-2.95-.17-6.69-2.12-6.69-2.12l8.19-16.99-9.95-3.26Z"/>
              <path class="cls-3" d="M200.88,169.4c-1.67-1.57-3.74-2.99-6.17-4.21,1.72,1.47,3.32,3.1,4.72,4.88,1.64,2.08,3.01,4.37,4.01,6.82.98,2.42,1.58,4.98,1.74,7.59.17,2.81-.2,5.64-1,8.33-.54,1.83-1.24,3.62-1.94,5.39-.72,1.82-1.48,3.62-2.29,5.4-1.64,3.65-3.43,7.22-5.28,10.76-1.87,3.57-3.8,7.1-5.73,10.64-1.08,1.98-2.16,3.97-3.21,5.96.53.11,1.06.2,1.56.23,2.95.17,2.78-.91,2.78-.91,4.05-4.48,18.47-31.08,19.22-38.53.76-7.45-2.57-16.89-8.4-22.36Z"/>
              <path class="cls-3" d="M189.44,230.06c-.54,0-1.07-.05-1.6-.12-.55-.08-1.1-.18-1.64-.31-.55-.13-1.1-.29-1.64-.46-.53-.17-1.05-.36-1.57-.57-.49-.2-.97-.41-1.44-.64-.11-.05-.22-.11-.33-.16l-.62,1.29s3.74,1.95,6.69,2.12c2.95.17,2.78-.91,2.78-.91.07-.08.15-.17.23-.27-.28.02-.57.04-.85.03Z"/>
              <path class="cls-3" d="M182.58,210.05c-.2-.14-.39-.29-.58-.44-.45-.36-.89-.75-1.26-1.21-.01-.02-.02-.04,0-.06.14-.22.27-.45.4-.68,1.08-1.9,1.94-3.91,2.82-5.91.87-1.99,1.79-3.96,2.74-5.91.95-1.95,1.94-3.89,2.93-5.82.99-1.95,1.97-3.9,2.91-5.87.4-.85.8-1.71,1.18-2.57-1.24-.7-2.51-1.35-3.78-1.99-3.17-1.58-6.4-3.04-9.56-4.62-1.6-.8-3.17-1.66-4.75-2.48-1.64-.85-3.28-1.68-4.93-2.52-3.19-1.62-6.43-3.2-9.52-5.03-1.25-.74-2.51-1.52-3.81-2.21-1.8.76-1.78,1.45-1.78,1.45l35.63,19.63-12.37,25.01,3.75,1.23Z"/>
              <path class="cls-9" d="M190,230.89c-.44.42-1.36.59-2.73.52-2.96-.17-6.62-2.07-6.77-2.15l-.18-.09,8.18-16.96-9.95-3.26,12.39-25.05-35.56-19.59v-.12c-.01-.3.31-2.96,14.61-3.55,6.96-.29,13.28.39,18.77,2.01,5.01,1.48,9.26,3.76,12.29,6.6,2.81,2.63,5.2,6.37,6.73,10.52,1.5,4.06,2.12,8.33,1.74,12.01-.16,1.57-1.3,6.7-8.4,20.45-4.26,8.26-8.8,15.85-10.83,18.14,0,.11-.05.29-.21.47-.02.02-.04.04-.06.06ZM180.87,228.98c.78.38,3.92,1.87,6.42,2.01,1.67.1,2.24-.22,2.44-.42.13-.14.12-.25.12-.26l-.02-.1.07-.07c1.98-2.19,6.53-9.81,10.82-18.11,4.9-9.49,8.03-17.08,8.35-20.3.77-7.6-2.74-16.93-8.34-22.19-2.98-2.8-7.18-5.05-12.12-6.51-5.45-1.61-11.72-2.28-18.63-1.99-12.24.51-13.94,2.54-14.17,3.02l35.67,19.65-12.35,24.98,9.95,3.26-8.21,17.02Z"/>
            </g>
          </g>
          <path class="cls-6" d="M197.19,237.2s5.87,5.58,12.21,12.83c6.34,7.25,80.25,91.15,80.25,91.15,0,0,5.55,7.27,13.21,3.61,0,0-6.34.56-10.28-3.58-3.94-4.14-92.94-103.43-92.94-103.43,0,0-1.04-1.27-2.45-.58Z"/>
          <path class="cls-8" d="M213.85,221.34s5.28,6.13,12.21,12.83c6.93,6.69,87.07,84.67,87.07,84.67,0,0,6.99,5.91,2.95,13.37,0,0,.88-6.3-3.06-10.44-3.94-4.14-98.7-97.95-98.7-97.95,0,0-1.21-1.1-.46-2.47Z"/>
          <path class="cls-7" d="M159.36,159.74s23.9-2.84,35.96,2.27c13.9,5.89,16.99,24.66,16.28,26.04,0,0-4.01-17.23-12.67-22.46-8.66-5.23-19.03-5.96-39.57-5.85Z"/>
          <polygon class="cls-3" points="142.94 188.36 173.54 204.94 166.9 219.3 171.77 205.89 142.94 188.36"/>
          <path class="cls-3" d="M153.17,165.63l34.64,19.5s-18.58-13.63-34.64-19.5Z"/>
        </g>
        <g>
          <g>
            <g>
              <polygon class="cls-10" points="302.54 227.73 302.1 230.4 299.1 231.42 286.75 208.01 291.38 205.49 302.54 227.73"/>
              <path class="cls-9" d="M298.99,231.67l3.29-1.12.47-2.86-11.29-22.49-4.99,2.72.1.18,12.43,23.56ZM301.91,230.24l-2.72.92-12.16-23.07,4.26-2.32,11.03,21.98-.41,2.49Z"/>
            </g>
            <g>
              <g>
                <g>
                  <rect class="cls-15" x="291.11" y="228.73" width="6.31" height="12.87" transform="translate(181.52 594.58) rotate(-111.21)"/>
                  <path class="cls-9" d="M289.29,240.7l12.38-4.81-2.43-6.27-12.38,4.81,2.43,6.27ZM301.14,235.65l-11.61,4.51-2.13-5.49,11.61-4.51,2.13,5.49Z"/>
                </g>
                <g>
                  <g>
                    <polygon class="cls-10" points="298.73 236.81 297.64 236.21 297.35 237.35 298.73 236.81"/>
                    <path class="cls-9" d="M297.05,237.69l2.16-.84-1.71-.95-.45,1.79ZM298.24,236.78l-.59.23.12-.49.47.26Z"/>
                  </g>
                  <g>
                    <polygon class="cls-10" points="293.58 238.81 292.49 238.21 292.2 239.34 293.58 238.81"/>
                    <path class="cls-9" d="M291.9,239.68l2.16-.84-1.71-.95-.45,1.79ZM293.09,238.78l-.59.23.12-.49.47.26Z"/>
                  </g>
                </g>
              </g>
              <g>
                <g>
                  <g>
                    <rect class="cls-2" x="291.43" y="230.23" width="8.91" height="18.17" transform="translate(179.84 601.74) rotate(-111.21)"/>
                    <rect class="cls-4" x="299.44" y="235.71" width="8.91" height=".98" transform="translate(193.65 604.97) rotate(-111.21)"/>
                    <rect class="cls-3" x="285.29" y="239.19" width="8.91" height="5.01" transform="translate(169.27 599.26) rotate(-111.21)"/>
                    <path class="cls-9" d="M288.9,247.02l17.33-6.73-3.37-8.69-17.33,6.73,3.37,8.69ZM305.69,240.06l-16.55,6.43-3.07-7.92,16.55-6.43,3.07,7.92Z"/>
                  </g>
                  <g>
                    <rect class="cls-2" x="291.43" y="235.41" width="8.91" height="7.81" transform="translate(179.84 601.74) rotate(-111.21)"/>
                    <rect class="cls-3" x="288.44" y="239.76" width="8.91" height="1.41" transform="translate(174.7 600.53) rotate(-111.21)"/>
                    <rect class="cls-4" x="293.99" y="237.16" width="8.91" height="2.31" transform="translate(184.26 602.77) rotate(-111.21)"/>
                    <path class="cls-9" d="M293.73,245.15l7.67-2.98-3.37-8.69-7.67,2.98,3.37,8.69ZM300.86,241.93l-6.89,2.68-3.07-7.92,6.89-2.68,3.07,7.92Z"/>
                  </g>
                </g>
                <g>
                  <g>
                    <polygon class="cls-10" points="302.18 241.64 300.64 240.79 300.24 242.4 302.18 241.64"/>
                    <path class="cls-9" d="M299.94,242.74l2.73-1.06-2.16-1.2-.57,2.26ZM301.69,241.61l-1.16.45.24-.96.91.51Z"/>
                  </g>
                  <g>
                    <polygon class="cls-10" points="294.91 244.47 293.37 243.61 292.97 245.22 294.91 244.47"/>
                    <path class="cls-9" d="M292.67,245.56l2.73-1.06-2.16-1.2-.57,2.26ZM294.42,244.43l-1.16.45.24-.96.91.51Z"/>
                  </g>
                </g>
                <g>
                  <g>
                    <polygon class="cls-10" points="298.96 233.34 298.4 235.01 297.01 234.1 298.96 233.34"/>
                    <path class="cls-9" d="M296.56,234.05l1.95,1.28.79-2.34-2.73,1.06ZM298.29,234.69l-.82-.54,1.16-.45-.33.99Z"/>
                  </g>
                  <g>
                    <polygon class="cls-10" points="291.69 236.16 291.13 237.83 289.74 236.92 291.69 236.16"/>
                    <path class="cls-9" d="M289.29,236.87l1.95,1.28.79-2.34-2.73,1.06ZM291.02,237.51l-.82-.54,1.16-.45-.33.99Z"/>
                  </g>
                </g>
              </g>
            </g>
            <g>
              <path class="cls-10" d="M271.21,161.29c16.18-4.76,35.34-1.54,35.34-1.54,0,0,10.73,3.98,8.1,5.63s-35.36,20-36.22,20.7c-.86.7,22.62,44.99,22.62,44.99,0,0-8.34,4.6-18.3,3.12-9.95-1.48-20.14,10.5-24.6,15.35-4.46,4.85-81.91,94.36-81.91,94.36,0,0-8.61,11.63-22.8-2.5-14.82-13.48-3.63-22.65-3.63-22.65,0,0,85.56-81.79,90.19-86.49,4.28-4.35,14.42-13.89,14.34-23.11-1.2-6.54-1.11-12.13-1.95-15.93-1.17-5.27,2.66-27.16,18.84-31.92Z"/>
              <path class="cls-3" d="M287.22,208.4c-2.43-4.45-4.8-8.93-7.09-13.46-1.72-3.41-3.01-6.03-4.59-9.51.46-.25,7.12-4.49,10.46-6.12.66-.32,1.18-.58,1.47-.72,3.53-1.74,7.02-3.58,10.46-5.48,3.3-1.82,6.5-3.79,9.71-5.77,2.14-1.33,4.31-2.65,6.57-3.78.86.7,1.2,1.36.45,1.83-2.63,1.65-35.36,20-36.22,20.7-.86.7,22.62,44.99,22.62,44.99,0,0-.64.36-1.79.84-1.31-3.99-3.24-7.76-5.26-11.42-2.23-4.04-4.57-8.03-6.78-12.08Z"/>
              <path class="cls-7" d="M255.92,220.16c.87-1.11,1.58-2.36,2.05-3.7.24-.67.41-1.36.52-2.05.12-.75.16-1.52.19-2.28.08-1.66.07-3.32-.03-4.97-.07-1.2-.19-2.4-.37-3.6.06.13.11.26.17.39,1.03,2.38,2.09,4.75,3.21,7.08,1.12,2.35,6.16,11.39,7.44,13.63,1.26,2.21,2.51,4.44,4.08,6.45.53.68,1.15,1.28,2.01,1.52.48.14.98.16,1.48.12-.15.1-.3.2-.46.29-.73.45-1.48.84-2.25,1.2-.78.36-1.58.67-2.4.94-.4.13-.8.25-1.21.36.05-1.65-.35-3.24-1.11-4.69-.76-1.46-1.81-2.75-2.9-3.98-1.06-1.2-2.13-2.4-3.28-3.51-1.91-1.83-4.41-3.61-7.2-3.13.02-.02.04-.05.06-.07Z"/>
              <path class="cls-6" d="M269.69,228.4c-1.37-1.74-2.41-3.71-3.45-5.65-.5-.94-1.04-1.86-1.57-2.78-.72-1.25-1.38-2.52-1.99-3.82-1.18-2.54-2.14-5.18-2.86-7.88-.23-.87-.44-1.75-.63-2.63.8,1.81,1.62,3.62,2.48,5.4,1.12,2.35,6.16,11.39,7.44,13.63,1.26,2.21,2.51,4.44,4.08,6.45.06.08.12.15.18.22-1.5-.47-2.73-1.73-3.67-2.93Z"/>
              <path class="cls-3" d="M271.21,161.29c5.41-1.59,11.15-2.29,16.39-2.52-.94.17-1.88.35-2.81.55-6.19,1.35-12.38,3.5-17.61,7.16-2.43,1.71-4.64,3.76-6.39,6.17-1.98,2.73-3.29,5.85-4.07,9.12-.81,3.44-1.08,6.99-1.16,10.51-.04,1.62-.02,3.23.12,4.84.13,1.52.34,3.02.57,4.53.6,3.89,1.31,7.87,1.14,11.78-2.25,6.28-6.33,11.82-10.98,16.59-7.24,7.42-14.77,14.58-22.16,21.86-7.44,7.33-14.78,14.78-22.42,21.92-7.61,7.11-15.39,14.02-23.06,21.06-6.58,6.04-13,12.26-19.52,18.37-4.49,4.21-9.6,9.61-8.74,16.3.93,7.17,7.09,13.12,14.27,13.78,5.08.46,10.07-.8,14.58-3.06-2.01,2.32-3.15,3.64-3.15,3.64,0,0-8.61,11.63-22.8-2.5-14.82-13.48-3.63-22.65-3.63-22.65,0,0,85.56-81.79,90.19-86.49,4.28-4.35,14.42-13.89,14.34-23.11-1.2-6.54-1.11-12.13-1.95-15.93-1.17-5.27,2.66-27.16,18.84-31.92Z"/>
              <path class="cls-9" d="M152.61,340.92c.22.21.45.42.68.63,5.03,5.01,9.93,7.37,14.56,7.02,5.31-.4,8.39-4.34,8.54-4.54,1-1.16,77.5-89.56,81.91-94.35.26-.29.55-.6.85-.94,2.39-2.62,5.99-6.58,10.14-9.69,4.93-3.69,9.44-5.25,13.42-4.66,2.86.43,7.43.6,12.97-1.01,3.31-.96,5.44-2.12,5.46-2.13l.18-.1-.1-.18c-9.07-17.1-22.47-42.95-22.62-44.77.91-.62,10.58-6.09,19.13-10.93,8.12-4.6,15.78-8.94,17.01-9.71.47-.29.53-.64.51-.88-.2-1.94-7.78-4.8-8.65-5.12h-.04s-4.88-.82-11.63-1.03c-6.23-.19-15.42.09-23.8,2.56-3.78,1.11-7.16,3.24-10.03,6.31-2.42,2.59-4.45,5.81-6.03,9.57-2.95,7.01-3.49,13.74-2.93,16.28.4,1.79.59,3.97.8,6.5.24,2.8.52,5.96,1.14,9.4.06,8.54-8.69,17.33-13.39,22.05-.32.32-.62.62-.89.9-4.56,4.63-89.05,85.4-90.18,86.48-.19.16-3.98,3.43-4.11,8.76-.11,4.44,2.26,9,7.06,13.57ZM153.58,341.25c-5.17-4.7-7.73-9.37-7.61-13.88.13-5.24,3.93-8.43,3.97-8.46h.01c.86-.83,85.61-81.86,90.19-86.5.27-.28.57-.58.89-.9,4.75-4.77,13.58-13.65,13.51-22.37v-.04c-.63-3.43-.9-6.59-1.15-9.38-.22-2.54-.41-4.74-.81-6.55-.54-2.41.02-9.18,2.9-16.03,4.37-10.38,11-14.24,15.79-15.65,4.6-1.35,12.43-2.89,23.66-2.55,6.51.2,11.22.96,11.56,1.01,3.3,1.22,8.23,3.5,8.36,4.77.01.12,0,.29-.32.48-1.22.77-8.89,5.11-17,9.7-9.65,5.47-18.77,10.63-19.24,11.01-.21.17-.43.34,3.11,7.58,1.84,3.76,4.47,8.95,7.82,15.44,5.29,10.25,10.75,20.55,11.54,22.05-1.27.65-9.02,4.34-17.98,3-4.1-.61-8.72.98-13.73,4.74-4.18,3.13-7.8,7.11-10.2,9.74-.3.33-.59.65-.85.93-4.41,4.8-81.14,93.47-81.92,94.37h0c-.03.05-3.02,4-8.25,4.4-4.5.34-9.29-1.99-14.24-6.91Z"/>
            </g>
            <g>
              <path class="cls-10" d="M289.88,205.41l12.22,24.99s14.88-10.64,19.99-21.42c5.11-10.79,7.71-24.84,5.05-23.47-4.7,2.43-37.26,19.89-37.26,19.89Z"/>
              <path class="cls-7" d="M315.7,205.8c1.3-1.72,2.58-3.45,3.75-5.26.71-1.09,1.38-2.21,1.96-3.37.46-.92.91-1.91,1.06-2.94.09-.64.04-1.39-.53-1.8-.72-.51-1.79-.32-2.61-.13.47-.52,1.05-.93,1.68-1.25,1.23-.62,2.61-.89,3.95-1.18.52-.11,1.05-.22,1.57-.35-.03.6-.07,1.2-.14,1.79-.5,4.58-1.97,9.03-3.87,13.21-.94,2.07-2,4.09-3.16,6.04-1.29,2.17-2.67,4.3-4.28,6.23-.91,1.09-1.88,2.13-2.89,3.13-.76.75-1.55,1.46-2.32,2.19-1.27,1.2-2.48,2.46-3.86,3.54-.62.49-1.3.98-2.06,1.24-.44.15-.86.21-1.28,0-.43-.22-.79-.58-1.1-.94-.43-.48-.79-1.01-1.13-1.56-.77-1.22-1.4-2.54-1.89-3.9-.21-.58-.39-1.17-.51-1.78-.09-.44-.16-.92-.07-1.36.06-.29.21-.58.54-.6.38-.03.78.35,1.06.56.3.23.6.51.95.68,1.92.93,4.01-.49,5.51-1.59,2.09-1.53,3.92-3.39,5.6-5.36,1.44-1.69,2.74-3.47,4.07-5.24Z"/>
              <path class="cls-3" d="M327.14,185.51c.71-.37,1.05.37,1.06,1.86-2.99,3-6.45,5.5-9.97,7.84-1.9,1.26-3.83,2.48-5.76,3.71-2.03,1.3-4.08,2.57-6.16,3.79-1.07.63-2.14,1.25-3.22,1.87-.81.47-1.61.94-2.45,1.33-1.59.75-3.34,1.38-4.69,2.53-.46.39-.98.94-1.16,1.54-.15.5.08.98.3,1.42,1.02,2.08,1.87,4.25,2.79,6.38.96,2.23,1.92,4.45,2.9,6.67.76,1.74,1.54,3.47,2.36,5.18-.65.5-1.03.77-1.03.77l-12.22-24.99s32.56-17.47,37.26-19.89Z"/>
              <path class="cls-9" d="M302.02,230.71l.2-.14s3.78-2.71,8.1-6.68c7.23-6.65,10.49-11.73,11.96-14.82,2.11-4.44,3.98-9.86,5.13-14.86.41-1.79,1.67-7.7.52-8.8-.13-.13-.43-.31-.89-.07-4.64,2.4-36.94,19.72-37.26,19.9l-.18.09,12.42,25.39ZM327.64,185.7s0,0,0,0c.53.51.54,3.31-.64,8.41-1.15,4.97-3.01,10.36-5.1,14.78-4.71,9.94-17.94,19.89-19.73,21.2l-12.02-24.59c2.6-1.39,32.62-17.49,37.08-19.8.25-.13.36-.05.4,0Z"/>
            </g>
            <g>
              <g>
                <polygon class="cls-13" points="295.26 227.77 287.54 212.75 279.25 215.9 287.26 231.11 295.26 227.77"/>
                <path class="cls-9" d="M287.17,231.38l8.38-3.5-7.91-15.39-8.69,3.3,8.22,15.59ZM294.98,227.67l-7.62,3.18-7.82-14.84,7.9-3,7.53,14.66Z"/>
              </g>
              <g>
                <g>
                  <path class="cls-10" d="M285.52,228.39h0c.22.57.87.86,1.45.64l6.61-2.57c.57-.22.86-.87.64-1.45h0c-.22-.57-.87-.86-1.45-.64l-6.61,2.57c-.57.22-.86.87-.64,1.45Z"/>
                  <path class="cls-9" d="M285.66,229c.1.1.22.18.36.24.3.13.64.14.95.02l6.78-2.63c.31-.12.55-.35.68-.65.13-.3.14-.64.02-.95l-.07-.17c-.12-.31-.35-.55-.65-.68-.3-.13-.64-.14-.95-.02l-6.78,2.63c-.64.25-.95.96-.71,1.6h0s.07.17.07.17c.07.17.17.32.3.45ZM293.79,224.71c.09.08.15.18.2.3l.07.17c.08.2.07.43-.02.63-.09.2-.25.36-.45.43l-6.78,2.63c-.2.08-.43.07-.63-.02-.2-.09-.36-.25-.43-.45l-.07-.17c-.16-.42.05-.9.47-1.06l6.78-2.63c.2-.08.43-.07.63.02.09.04.17.09.24.16Z"/>
                </g>
                <g>
                  <path class="cls-10" d="M284.45,226.4h0c.22.57.87.86,1.45.64l6.61-2.57c.57-.22.86-.87.64-1.45h0c-.22-.57-.87-.86-1.45-.64l-6.61,2.57c-.57.22-.86.87-.64,1.45Z"/>
                  <path class="cls-9" d="M284.59,227.01c.1.1.22.18.36.24.3.13.64.14.95.02l6.78-2.63c.64-.25.95-.96.71-1.6l-.07-.17c-.12-.31-.35-.55-.65-.68-.3-.13-.64-.14-.95-.02l-6.78,2.63c-.31.12-.55.35-.68.65-.13.3-.14.64-.02.95l.07.17c.07.17.17.32.3.45ZM292.72,222.73c.09.08.15.18.2.3l.07.17c.16.42-.05.9-.47,1.06l-6.78,2.63c-.2.08-.43.07-.63-.02-.2-.09-.36-.25-.43-.45l-.07-.17c-.08-.2-.07-.43.02-.63.09-.2.25-.36.45-.43l6.78-2.63c.2-.08.43-.07.63.02.09.04.17.09.24.16Z"/>
                </g>
                <g>
                  <path class="cls-10" d="M283.38,224.42h0c.22.57.87.86,1.45.64l6.61-2.57c.57-.22.86-.87.64-1.45h0c-.22-.57-.87-.86-1.45-.64l-6.61,2.57c-.57.22-.86.87-.64,1.45Z"/>
                  <path class="cls-9" d="M283.51,225.02c.34.32.84.44,1.3.26l6.78-2.63c.64-.25.95-.96.71-1.6l-.07-.17c-.12-.31-.35-.55-.65-.68-.3-.13-.64-.14-.95-.02l-6.78,2.63c-.31.12-.55.35-.68.65-.13.3-.14.64-.02.95l.07.17c.07.17.17.33.3.45ZM291.65,220.74c.09.08.15.18.2.3l.07.17c.16.42-.05.9-.47,1.06l-6.78,2.63c-.42.16-.9-.05-1.06-.47l-.07-.17c-.08-.2-.07-.43.02-.63.09-.2.25-.36.45-.43l6.78-2.63c.2-.08.43-.07.63.02.09.04.17.09.24.16Z"/>
                </g>
                <g>
                  <path class="cls-10" d="M282.3,222.43h0c.22.57.87.86,1.45.64l6.61-2.57c.57-.22.86-.87.64-1.45h0c-.22-.57-.87-.86-1.45-.64l-6.61,2.57c-.57.22-.86.87-.64,1.45Z"/>
                  <path class="cls-9" d="M282.44,223.03c.34.32.84.44,1.3.26l6.78-2.63c.64-.25.95-.96.71-1.6l-.07-.17c-.12-.31-.35-.55-.65-.68-.3-.13-.64-.14-.95-.02l-6.78,2.63c-.31.12-.55.35-.68.65-.13.3-.14.64-.02.95l.07.17c.07.17.17.33.3.45ZM290.57,218.75c.09.08.15.18.2.3l.07.17c.16.42-.05.9-.47,1.06l-6.78,2.63c-.2.08-.43.07-.63-.02-.2-.09-.36-.25-.43-.45l-.07-.17c-.08-.2-.07-.43.02-.63.09-.2.25-.36.45-.43l6.78-2.63c.2-.08.43-.07.63.02.09.04.17.09.24.16Z"/>
                </g>
                <g>
                  <path class="cls-10" d="M281.23,220.44h0c.22.57.87.86,1.45.64l6.61-2.57c.57-.22.86-.87.64-1.45h0c-.22-.57-.87-.86-1.45-.64l-6.61,2.57c-.57.22-.86.87-.64,1.45Z"/>
                  <path class="cls-9" d="M281.37,221.04c.1.1.22.18.36.24.3.13.64.14.95.02l6.78-2.63c.31-.12.55-.35.68-.65.13-.3.14-.64.02-.95l-.07-.17c-.25-.64-.96-.95-1.6-.71l-6.78,2.63c-.31.12-.55.35-.68.65-.13.3-.14.64-.02.95h0s.07.17.07.17c.07.17.17.32.3.45ZM289.5,216.76c.09.08.15.18.2.3l.07.17c.08.2.07.43-.02.63-.09.2-.25.36-.45.43l-6.78,2.63c-.2.08-.43.07-.63-.02-.2-.09-.36-.25-.43-.45l-.07-.17c-.16-.42.05-.9.47-1.06l6.78-2.63c.2-.08.43-.07.63.02.09.04.17.09.24.16Z"/>
                </g>
                <g>
                  <path class="cls-10" d="M280.16,218.45h0c.22.57.87.86,1.45.64l6.61-2.57c.57-.22.86-.87.64-1.45h0c-.22-.57-.87-.86-1.45-.64l-6.61,2.57c-.57.22-.86.87-.64,1.45Z"/>
                  <path class="cls-9" d="M280.29,219.05c.1.1.22.18.36.24.3.13.64.14.95.02l6.78-2.63c.31-.12.55-.35.68-.65.13-.3.14-.64.02-.95l-.07-.17c-.12-.31-.35-.55-.65-.68-.3-.13-.64-.14-.95-.02l-6.78,2.63c-.31.12-.55.35-.68.65-.13.3-.14.64-.02.95l.07.17c.07.17.17.32.3.45ZM288.43,214.77c.09.08.15.18.2.3l.07.17c.16.42-.05.9-.47,1.06l-6.78,2.63c-.2.08-.43.07-.63-.02-.2-.09-.36-.25-.43-.45l-.07-.17c-.08-.2-.07-.43.02-.63.09-.2.25-.36.45-.43l6.78-2.63c.2-.08.43-.07.63.02.09.04.17.09.24.16Z"/>
                </g>
              </g>
            </g>
            <path class="cls-1" d="M292.03,227.07l-1.95.76c-.37-.65-.71-1.32-1.04-2l1.88-.73c.36.66.73,1.32,1.11,1.97Z"/>
            <path class="cls-3" d="M287.06,226.6c.35.66.72,1.32,1.08,1.98l-1.26.49c-.53.2-1.13-.06-1.33-.59l-.07-.17c-.2-.53.06-1.13.59-1.33l.98-.38Z"/>
            <path class="cls-1" d="M290.89,225.06s.01.03.02.04l-1.88.73c-.18-.38-.36-.76-.54-1.15-.14-.3-.27-.59-.4-.89l1.78-.69c.33.66.67,1.31,1.02,1.96Z"/>
            <path class="cls-3" d="M286.01,224.6c.19.36.38.73.57,1.09.16.3.32.6.48.9l-1.25.48c-.53.2-1.13-.06-1.33-.59l-.07-.17c-.2-.53.06-1.13.59-1.33l1.01-.39Z"/>
            <path class="cls-1" d="M288.95,221.26c.31.61.61,1.23.92,1.84l-1.78.69c-.31-.68-.61-1.36-.93-2.04l1.7-.66c.03.06.06.12.09.17Z"/>
            <path class="cls-3" d="M284.99,222.59c.34.67.68,1.34,1.02,2l-1.27.49c-.53.2-1.13-.06-1.33-.59l-.07-.17c-.2-.53.06-1.13.59-1.33l1.05-.41Z"/>
            <path class="cls-1" d="M288.86,221.08l-1.7.66c-.13-.27-.26-.54-.39-.81-.2-.4-.4-.8-.61-1.2l1.68-.65c.35.66.69,1.33,1.03,2Z"/>
            <path class="cls-3" d="M283.95,220.59c.23.44.47.89.7,1.33.11.22.22.44.34.67l-1.32.51c-.53.2-1.13-.06-1.33-.59l-.07-.17c-.2-.53.06-1.13.59-1.33l1.09-.42Z"/>
            <path class="cls-3" d="M282.91,218.58c.25.49.51.98.76,1.47.09.18.18.35.28.52l-1.36.53c-.53.2-1.13-.06-1.33-.59l-.07-.17c-.2-.53.06-1.13.59-1.33l1.13-.44Z"/>
            <path class="cls-1" d="M287.03,217.6c.27.49.54.98.8,1.48l-1.68.65c-.08-.14-.15-.29-.23-.43-.28-.52-.58-1.03-.87-1.54l1.7-.66c.09.17.19.34.28.5Z"/>
            <path class="cls-3" d="M281.88,216.58c.28.54.56,1.07.84,1.61.07.13.13.26.2.39l-1.39.54c-.53.2-1.13-.06-1.33-.59l-.07-.17c-.2-.53.06-1.13.59-1.33l1.17-.45Z"/>
            <path class="cls-1" d="M286.74,217.09l-1.7.66s-.04-.07-.06-.11c-.36-.62-.71-1.23-1.06-1.86l1.71-.66c.37.66.74,1.31,1.11,1.97Z"/>
            <g>
              <path class="cls-3" d="M157.47,319.21s94.31-93.41,96.58-96.25c2.28-2.84,4.72-.31,4.72-.31l.38.36,7.19,6.84.38.36s2.65,2.32-.08,4.73c-2.73,2.41-91.35,101.23-91.35,101.23,0,0-6.02,8.56-12.78,3.77-2.08-1.48-3.41-2.53-4.23-3.34-1.09-1.01-2.37-2.45-3.95-4.45-5.12-6.51,3.13-12.95,3.13-12.95Z"/>
              <path class="cls-10" d="M158.67,319.03s92.35-92.05,94.61-94.82c2.26-2.77,4.4-.54,4.4-.54l.34.32,6.32,6.01.34.32s2.34,2.03-.32,4.42c-2.66,2.39-90.01,99.19-90.01,99.19,0,0-6.03,8.3-12.05,4.18-1.86-1.27-3.03-2.18-3.75-2.89-.96-.89-2.08-2.16-3.44-3.95-4.42-5.81,3.58-12.24,3.58-12.24Z"/>
              <path class="cls-5" d="M247.24,242.54c.29-4.26.53-8.53.69-12.8,2.52-2.55,4.26-4.34,5-5.13-.15,1.9-.25,3.8-.4,5.7-.21,2.56-.44,5.13-.68,7.69-.37,3.87-.77,7.74-1.17,11.6-1.38,1.51-2.83,3.11-4.35,4.78.33-3.95.64-7.89.91-11.85Z"/>
              <path class="cls-5" d="M165.12,339.22c.14-3.07.44-6.13.76-9.19.18-1.76.37-3.53.54-5.3.08-.84.15-1.67.21-2.51.07-.91.09-1.82.14-2.73.15-3.11.47-6.2.76-9.3.98-.98,2.03-2.02,3.13-3.13-.24,2.64-.49,5.28-.71,7.91-.35,4.08-.67,8.17-.91,12.26-.23,3.81-.39,7.62-.45,11.43-1.08.45-2.26.69-3.47.55Z"/>
              <path class="cls-5" d="M190.91,298.39c.32-4.16.63-8.32.96-12.48,7.3-7.29,15.09-15.07,22.59-22.58-.79,8.43-1.95,16.83-3.1,25.22-.24,1.74-.48,3.48-.73,5.23-7.72,8.53-15.08,16.68-21.13,23.38.45-6.26.92-12.51,1.41-18.77Z"/>
              <path class="cls-9" d="M157.98,336.6c.06.05.11.11.17.16.84.83,2.2,1.89,4.25,3.35,1.77,1.26,3.66,1.73,5.6,1.39,4.21-.73,7.25-4.91,7.46-5.2,1.31-1.46,88.64-98.84,91.33-101.21.87-.77,1.31-1.61,1.3-2.5,0-1.45-1.18-2.5-1.23-2.54l-7.95-7.56s-1.14-1.16-2.59-1.09c-.89.04-1.71.52-2.44,1.43-2.24,2.79-95.17,94.85-96.56,96.23-.28.22-4.31,3.46-4.82,7.7-.24,1.96.32,3.82,1.67,5.53,1.46,1.86,2.71,3.28,3.8,4.32ZM158.43,336.46c-1.12-1.04-2.41-2.49-3.94-4.43-1.27-1.62-1.81-3.37-1.58-5.22.5-4.13,4.64-7.4,4.68-7.44l.02-.02c3.85-3.81,94.34-93.45,96.6-96.27.65-.81,1.36-1.23,2.13-1.27,1.27-.06,2.27.96,2.28.97l7.96,7.57s1.09.97,1.09,2.24c0,.77-.39,1.5-1.16,2.19-2.71,2.39-87.75,97.22-91.37,101.25l-.02.02s-3.09,4.34-7.2,5.04c-1.83.31-3.61-.13-5.29-1.32-2.04-1.45-3.38-2.5-4.21-3.31Z"/>
            </g>
            <g>
              <path class="cls-2" d="M285.99,209.66l-12.37-25.01,35.63-19.63s.09-2.73-14.41-3.33c-14.5-.6-25.07,3.08-30.9,8.55-5.84,5.48-9.16,14.91-8.4,22.36.76,7.45,15.17,34.04,19.22,38.53,0,0-.17,1.08,2.78.91,2.95-.17,6.69-2.12,6.69-2.12l-8.19-16.99,9.95-3.26Z"/>
              <path class="cls-3" d="M263.95,170.24c1.67-1.57,3.74-2.99,6.17-4.21-1.72,1.47-3.32,3.1-4.72,4.88-1.64,2.08-3.01,4.37-4.01,6.82-.98,2.42-1.58,4.98-1.74,7.59-.17,2.81.2,5.64,1,8.33.54,1.83,1.24,3.62,1.94,5.39.72,1.82,1.48,3.62,2.29,5.4,1.64,3.65,3.43,7.22,5.28,10.76,1.87,3.57,3.8,7.1,5.73,10.64,1.08,1.98,2.16,3.97,3.21,5.96-.53.11-1.06.2-1.56.23-2.95.17-2.78-.91-2.78-.91-4.05-4.48-18.47-31.08-19.22-38.53-.76-7.45,2.57-16.89,8.4-22.36Z"/>
              <path class="cls-3" d="M275.39,230.89c.54,0,1.07-.05,1.6-.12.55-.08,1.1-.18,1.64-.31.55-.13,1.1-.29,1.64-.46.53-.17,1.05-.36,1.57-.57.49-.2.97-.41,1.44-.64.11-.05.22-.11.33-.16l.62,1.29s-3.74,1.95-6.69,2.12c-2.95.17-2.78-.91-2.78-.91-.07-.08-.15-.17-.23-.27.28.02.57.04.85.03Z"/>
              <path class="cls-3" d="M282.25,210.89c.2-.14.39-.29.58-.44.45-.36.89-.75,1.26-1.21.01-.02.02-.04,0-.06-.14-.22-.27-.45-.4-.68-1.08-1.9-1.94-3.91-2.82-5.91-.87-1.99-1.79-3.96-2.74-5.91-.95-1.95-1.94-3.89-2.93-5.82-.99-1.95-1.97-3.9-2.91-5.87-.4-.85-.8-1.71-1.18-2.57,1.24-.7,2.51-1.35,3.78-1.99,3.17-1.58,6.4-3.04,9.56-4.62,1.6-.8,3.17-1.66,4.75-2.48,1.64-.85,3.28-1.68,4.93-2.52,3.19-1.62,6.43-3.2,9.52-5.03,1.25-.74,2.51-1.52,3.81-2.21,1.8.76,1.78,1.45,1.78,1.45l-35.63,19.63,12.37,25.01-3.75,1.23Z"/>
              <path class="cls-9" d="M274.83,231.73c.44.42,1.36.59,2.73.52,2.96-.17,6.62-2.07,6.77-2.15l.18-.09-8.18-16.96,9.95-3.26-12.39-25.05,35.56-19.59v-.12c.01-.3-.31-2.96-14.61-3.55-6.96-.29-13.28.39-18.77,2.01-5.01,1.48-9.26,3.76-12.29,6.6-2.81,2.63-5.2,6.37-6.73,10.52-1.5,4.06-2.12,8.33-1.74,12.01.16,1.57,1.3,6.7,8.4,20.45,4.26,8.26,8.8,15.85,10.83,18.14,0,.11.05.29.21.47.02.02.04.04.06.06ZM283.96,229.82c-.78.38-3.92,1.87-6.42,2.01-1.67.1-2.24-.22-2.44-.42-.13-.14-.12-.25-.12-.26l.02-.1-.07-.07c-1.98-2.19-6.53-9.81-10.82-18.11-4.9-9.49-8.03-17.08-8.35-20.3-.77-7.6,2.74-16.93,8.34-22.19,2.98-2.8,7.18-5.05,12.12-6.51,5.45-1.61,11.72-2.28,18.63-1.99,12.24.51,13.94,2.54,14.17,3.02l-35.67,19.65,12.35,24.98-9.95,3.26,8.21,17.02Z"/>
            </g>
          </g>
          <path class="cls-6" d="M267.64,238.04s-5.87,5.58-12.21,12.83c-6.34,7.25-80.25,91.15-80.25,91.15,0,0-5.55,7.27-13.21,3.61,0,0,6.34.56,10.28-3.58,3.94-4.14,92.94-103.43,92.94-103.43,0,0,1.04-1.27,2.45-.58Z"/>
          <path class="cls-8" d="M250.98,222.18s-5.28,6.13-12.21,12.83c-6.93,6.69-87.07,84.67-87.07,84.67,0,0-6.99,5.91-2.95,13.37,0,0-.88-6.3,3.06-10.44,3.94-4.14,98.7-97.95,98.7-97.95,0,0,1.21-1.1.46-2.47Z"/>
          <path class="cls-7" d="M305.47,160.58s-23.9-2.84-35.96,2.27c-13.9,5.89-16.99,24.66-16.28,26.04,0,0,4.01-17.23,12.67-22.46,8.66-5.23,19.03-5.96,39.57-5.85Z"/>
          <polygon class="cls-3" points="321.89 189.2 291.29 205.78 297.93 220.14 293.06 206.73 321.89 189.2"/>
          <path class="cls-3" d="M311.66,166.47l-34.64,19.5s18.58-13.63,34.64-19.5Z"/>
        </g>
      </g>
      <circle class="cls-14" cx="232.42" cy="253.12" r="216.3"/>
      <text class="cls-16" transform="translate(79.67 188.8) rotate(-61.89)"><tspan x="0" y="0">V</tspan></text>
      <text class="cls-16" transform="translate(93.98 162.24) rotate(-51.26)"><tspan x="0" y="0">A</tspan></text>
      <text class="cls-16" transform="translate(115.88 136.14) rotate(-40.93)"><tspan x="0" y="0">L</tspan></text>
      <text class="cls-16" transform="translate(136.26 119.29) rotate(-33.63)"><tspan x="0" y="0"> </tspan></text>
      <text class="cls-16" transform="translate(149.66 110.16) rotate(-25.67)"><tspan x="0" y="0">P</tspan></text>
      <text class="cls-16" transform="translate(177.33 97.47) rotate(-16.03)"><tspan x="0" y="0">L</tspan></text>
      <text class="cls-16" transform="translate(201.04 90.45) rotate(-5.78)"><tspan x="0" y="0">O</tspan></text>
      <text class="cls-16" transform="translate(237.14 86.79) rotate(8.08)"><tspan x="0" y="0">M</tspan></text>
      <text class="cls-16" transform="translate(280.96 94.23) rotate(20.89)"><tspan x="0" y="0">B</tspan></text>
      <text class="cls-16" transform="translate(310.18 105.99) rotate(30.9)"><tspan x="0" y="0">E</tspan></text>
      <text class="cls-16" transform="translate(333.31 120.03) rotate(41.06)"><tspan x="0" y="0">R</tspan></text>
      <text class="cls-16" transform="translate(356.91 141.75) rotate(49.67)"><tspan x="0" y="0">I</tspan></text>
      <text class="cls-16" transform="translate(368.69 155.64) rotate(57.44)"><tspan x="0" y="0">E</tspan></text>
      <text class="cls-11" transform="translate(35.75 224.32) rotate(95.3)"><tspan x="0" y="0">P</tspan></text>
      <text class="cls-11" transform="translate(33.36 255.79) rotate(87.51)"><tspan x="0" y="0">L</tspan></text>
      <text class="cls-11" transform="translate(34.76 283.1) rotate(78.18)"><tspan x="0" y="0">O</tspan></text>
      <text class="cls-11" transform="translate(43.82 322.5) rotate(65.65)"><tspan x="0" y="0">M</tspan></text>
      <text class="cls-11" transform="translate(64.5 364.22) rotate(54.16)"><tspan x="0" y="0">B</tspan></text>
      <text class="cls-11" transform="translate(84.18 389.86) rotate(46.7)"><tspan x="0" y="0">I</tspan></text>
      <text class="cls-11" transform="translate(97.99 404.19) rotate(39.78)"><tspan x="0" y="0">E</tspan></text>
      <text class="cls-11" transform="translate(121.1 422.72) rotate(30.72)"><tspan x="0" y="0">R</tspan></text>
      <text class="cls-11" transform="translate(150 438.73) rotate(23.23)"><tspan x="0" y="0"> </tspan></text>
      <text class="cls-11" transform="translate(167.86 446.47) rotate(14.87)"><tspan x="0" y="0">&amp;</tspan></text>
      <text class="cls-11" transform="translate(205.34 455.04) rotate(7.16)"><tspan x="0" y="0"> </tspan></text>
      <text class="cls-11" transform="translate(224.56 457.24) rotate(-.76)"><tspan x="0" y="0">C</tspan></text>
      <text class="cls-11" transform="translate(259 456.09) rotate(-11.27)"><tspan x="0" y="0">H</tspan></text>
      <text class="cls-11" transform="translate(296.93 447.47) rotate(-22.07)"><tspan x="0" y="0">A</tspan></text>
      <text class="cls-11" transform="translate(329.46 433.48) rotate(-32.35)"><tspan x="0" y="0">U</tspan></text>
      <text class="cls-11" transform="translate(360.17 412.76) rotate(-41.77)"><tspan x="0" y="0">F</tspan></text>
      <text class="cls-11" transform="translate(381.11 393.24) rotate(-49.92)"><tspan x="0" y="0">F</tspan></text>
      <text class="cls-11" transform="translate(398.02 372.76) rotate(-58.46)"><tspan x="0" y="0">A</tspan></text>
      <text class="cls-11" transform="translate(415.93 342.15) rotate(-68.78)"><tspan x="0" y="0">G</tspan></text>
      <text class="cls-11" transform="translate(427.94 308) rotate(-76.9)"><tspan x="0" y="0">I</tspan></text>
      <text class="cls-11" transform="translate(432.44 288.18) rotate(-84.7)"><tspan x="0" y="0">S</tspan></text>
      <text class="cls-11" transform="translate(434.83 257.96) rotate(-92.7)"><tspan x="0" y="0">T</tspan></text>
      <text class="cls-11" transform="translate(432.66 227.19) rotate(-101.36)"><tspan x="0" y="0">E</tspan></text>
    </g>
  </g>
</svg>